<?xml version="1.0" encoding="UTF-8"?>
<!DOCTYPE svg PUBLIC "-//W3C//DTD SVG 1.1//EN" "http://www.w3.org/Graphics/SVG/1.1/DTD/svg11.dtd">
<svg xmlns="http://www.w3.org/2000/svg" version="1.1" width="64px" height="33px" style="shape-rendering:geometricPrecision; text-rendering:geometricPrecision; image-rendering:optimizeQuality; fill-rule:evenodd; clip-rule:evenodd" xmlns:xlink="http://www.w3.org/1999/xlink">
<g><path style="opacity:1" fill="#fbfbff" d="M -0.5,-0.5 C 20.8333,-0.5 42.1667,-0.5 63.5,-0.5C 63.5,0.5 63.5,1.5 63.5,2.5C 46.3573,0.874194 29.3573,1.37419 12.5,4C 11.6198,5.35613 11.2865,6.85613 11.5,8.5C 8.60618,8.04229 6.10618,8.70896 4,10.5C 3.33333,14.1667 3.33333,17.8333 4,21.5C 5.35613,22.3802 6.85613,22.7135 8.5,22.5C 8.28649,24.1439 8.61983,25.6439 9.5,27C 14.6835,27.1739 19.6835,27.6739 24.5,28.5C 24.9175,29.2216 25.5842,29.7216 26.5,30C 37.848,30.8325 49.1813,30.6658 60.5,29.5C 60.3764,28.8933 60.0431,28.56 59.5,28.5C 55.8955,25.3985 52.3955,22.0651 49,18.5C 45.4225,22.327 41.7558,22.327 38,18.5C 34.9641,21.7044 31.7974,24.7044 28.5,27.5C 27.6618,27.1583 27.3284,26.4916 27.5,25.5C 29.9619,22.5361 32.6286,19.7028 35.5,17C 33,15.1667 30.5,13.3333 28,11.5C 27.3333,10.5 27.3333,9.5 28,8.5C 33.1816,12.09 38.5149,15.4234 44,18.5C 50.4559,14.359 56.9559,10.359 63.5,6.5C 63.5,7.5 63.5,8.5 63.5,9.5C 59.388,11.7279 55.388,14.2279 51.5,17C 55.0954,21.1042 59.0954,24.6042 63.5,27.5C 63.5,29.1667 63.5,30.8333 63.5,32.5C 42.1667,32.5 20.8333,32.5 -0.5,32.5C -0.5,21.5 -0.5,10.5 -0.5,-0.5 Z"/></g>
<g><path style="opacity:1" fill="#88a5ff" d="M 63.5,2.5 C 63.5,3.83333 63.5,5.16667 63.5,6.5C 56.9559,10.359 50.4559,14.359 44,18.5C 38.5149,15.4234 33.1816,12.09 28,8.5C 27.3333,9.5 27.3333,10.5 28,11.5C 30.5,13.3333 33,15.1667 35.5,17C 32.6286,19.7028 29.9619,22.5361 27.5,25.5C 26.8999,26.9002 25.8999,27.9002 24.5,28.5C 19.6835,27.6739 14.6835,27.1739 9.5,27C 8.61983,25.6439 8.28649,24.1439 8.5,22.5C 6.85613,22.7135 5.35613,22.3802 4,21.5C 3.33333,17.8333 3.33333,14.1667 4,10.5C 6.10618,8.70896 8.60618,8.04229 11.5,8.5C 11.2865,6.85613 11.6198,5.35613 12.5,4C 29.3573,1.37419 46.3573,0.874194 63.5,2.5 Z"/></g>
<g><path style="opacity:1" fill="#fdfdff" d="M 24.5,6.5 C 24.5,7.16667 24.5,7.83333 24.5,8.5C 11.1667,7.83333 11.1667,7.16667 24.5,6.5 Z"/></g>
<g><path style="opacity:1" fill="#adc2ff" d="M 24.5,6.5 C 11.1667,7.16667 11.1667,7.83333 24.5,8.5C 21.0381,9.48164 17.3714,9.81497 13.5,9.5C 13.5,8.16667 13.5,6.83333 13.5,5.5C 17.3714,5.18503 21.0381,5.51836 24.5,6.5 Z"/></g>
<g><path style="opacity:1" fill="#87a5ff" d="M 63.5,9.5 C 63.5,15.5 63.5,21.5 63.5,27.5C 59.0954,24.6042 55.0954,21.1042 51.5,17C 55.388,14.2279 59.388,11.7279 63.5,9.5 Z"/></g>
<g><path style="opacity:1" fill="#f1f4ff" d="M 5.5,11.5 C 11.5,11.5 17.5,11.5 23.5,11.5C 23.5,14.1667 23.5,16.8333 23.5,19.5C 17.5,19.5 11.5,19.5 5.5,19.5C 5.5,16.8333 5.5,14.1667 5.5,11.5 Z"/></g>
<g><path style="opacity:1" fill="#8faaff" d="M 8.5,14.5 C 9.67504,14.281 10.675,14.6143 11.5,15.5C 9.94835,16.7979 8.94835,16.4646 8.5,14.5 Z"/></g>
<g><path style="opacity:1" fill="#83a2ff" d="M 14.5,14.5 C 16.337,14.6395 16.6704,15.3061 15.5,16.5C 14.7025,16.0431 14.3691,15.3764 14.5,14.5 Z"/></g>
<g><path style="opacity:1" fill="#83a2ff" d="M 19.5,14.5 C 21.337,14.6395 21.6704,15.3061 20.5,16.5C 19.7025,16.0431 19.3691,15.3764 19.5,14.5 Z"/></g>
<g><path style="opacity:1" fill="#84a2ff" d="M 59.5,28.5 C 49.008,29.6588 38.3414,29.8255 27.5,29C 28.056,28.6174 28.3893,28.1174 28.5,27.5C 31.7974,24.7044 34.9641,21.7044 38,18.5C 41.7558,22.327 45.4225,22.327 49,18.5C 52.3955,22.0651 55.8955,25.3985 59.5,28.5 Z"/></g>
<g><path style="opacity:1" fill="#fefffe" d="M 11.5,22.5 C 15.5546,22.1758 19.5546,22.5091 23.5,23.5C 21.5,23.8333 19.5,24.1667 17.5,24.5C 15.0478,24.4609 13.0478,23.7943 11.5,22.5 Z"/></g>
<g><path style="opacity:1" fill="#b4c7ff" d="M 27.5,25.5 C 27.3284,26.4916 27.6618,27.1583 28.5,27.5C 28.3893,28.1174 28.056,28.6174 27.5,29C 38.3414,29.8255 49.008,29.6588 59.5,28.5C 60.0431,28.56 60.3764,28.8933 60.5,29.5C 49.1813,30.6658 37.848,30.8325 26.5,30C 25.5842,29.7216 24.9175,29.2216 24.5,28.5C 25.8999,27.9002 26.8999,26.9002 27.5,25.5 Z"/></g>
</svg>
